P3
4 4
255
0 0 0 0 0 0 0 0 0 0 0 0
0 0 0 0 0 0 0 0 0 0 0 0
8 8 8 8 8 8 0 0 0 0 0 0
8 8 8 8 8 8 0 0 0 0 0 0
