P3
4 4
255
9 9 9 9 9 9 0 0 0 0 0 0
9 9 9 9 9 9 8 8 8 0 0 0
8 8 8 8 8 8 8 8 8 0 0 0
8 8 8 8 8 8 8 8 8 0 0 0
